<?xml version="1.0" encoding="iso-8859-1"?>
<!-- Generator: Adobe Illustrator 19.0.0, SVG Export Plug-In . SVG Version: 6.00 Build 0)  -->
<svg version="1.1" id="Layer_1" xmlns="http://www.w3.org/2000/svg" xmlns:xlink="http://www.w3.org/1999/xlink" x="0px" y="0px"
	 viewBox="0 0 512 512" style="enable-background:new 0 0 512 512;" xml:space="preserve">
<g>
	<g>
		<g>
			<path d="M255.999,0C157.385,0,77.155,80.229,77.155,178.846c0,95.432,163.813,319.578,170.786,329.073
				c1.884,2.565,4.877,4.081,8.06,4.081c3.183,0,6.176-1.516,8.06-4.081c6.973-9.495,170.785-233.642,170.785-329.073
				C434.845,80.229,354.616,0,255.999,0z M255.999,484.881c-14.228-19.986-45.197-64.436-75.888-114.7
				c-54.271-88.884-82.958-155.046-82.958-191.335C97.155,91.258,168.411,20,255.999,20c87.587,0,158.845,71.258,158.845,158.846
				c0,36.272-28.662,102.395-82.886,191.219C301.26,420.351,270.242,464.872,255.999,484.881z"/>
			<path d="M255.999,91.69c-48.057,0-87.155,39.098-87.155,87.155S207.942,266,255.999,266s87.154-39.098,87.154-87.154
				C343.155,130.788,304.057,91.69,255.999,91.69z M255.999,246c-37.029,0-67.155-30.125-67.155-67.154s30.126-67.156,67.155-67.156
				s67.154,30.126,67.154,67.155S293.029,246,255.999,246z"/>
			<path d="M137.408,178.846c0-65.392,53.2-118.591,118.591-118.591c5.523,0,10-4.478,10-10c0-5.522-4.477-10-10-10
				c-76.419,0-138.591,62.172-138.591,138.591c0,8.033,1.446,17.549,4.297,28.284c1.189,4.478,5.235,7.436,9.659,7.436
				c0.85,0,1.713-0.109,2.573-0.338c5.338-1.418,8.516-6.895,7.098-12.232C138.629,192.935,137.408,185.146,137.408,178.846z"/>
			<path d="M161.113,253.976c-2.354-4.995-8.312-7.138-13.309-4.782c-4.996,2.355-7.137,8.313-4.782,13.31
				c4.516,9.582,9.697,19.882,15.397,30.614c1.797,3.382,5.259,5.311,8.84,5.311c1.582,0,3.188-0.377,4.682-1.171
				c4.877-2.591,6.731-8.645,4.141-13.522C170.53,273.283,165.494,263.271,161.113,253.976z"/>
			<path d="M201.088,328.051c-2.82-4.749-8.955-6.312-13.704-3.494c-4.749,2.818-6.313,8.954-3.495,13.703
				c31.722,53.439,63.629,98.622,63.947,99.072c1.949,2.754,5.036,4.224,8.171,4.224c1.997,0,4.014-0.597,5.769-1.839
				c4.508-3.189,5.576-9.431,2.386-13.938C263.849,425.334,232.384,380.771,201.088,328.051z"/>
		</g>
	</g>
</g>
<g>
</g>
<g>
</g>
<g>
</g>
<g>
</g>
<g>
</g>
<g>
</g>
<g>
</g>
<g>
</g>
<g>
</g>
<g>
</g>
<g>
</g>
<g>
</g>
<g>
</g>
<g>
</g>
<g>
</g>
</svg>
